<?xml version="1.0" encoding="utf-8"?>
<!-- Generator: Adobe Illustrator 24.3.0, SVG Export Plug-In . SVG Version: 6.00 Build 0)  -->
<svg version="1.1" id="Layer_1" xmlns="http://www.w3.org/2000/svg" xmlns:xlink="http://www.w3.org/1999/xlink" x="0px" y="0px"
	 viewBox="0 0 113.5 79" style="enable-background:new 0 0 113.5 79;" xml:space="preserve">
<style type="text/css">
	.st0{fill:#FFF1DA;}
	.st1{fill:#D5D6DB;}
	.st2{fill:#029BC5;}
	.st3{fill:#E1E6E9;}
	.st4{fill:#3A556A;}
</style>
<path class="st0" d="M22.8,31c0,9.9,8.1,18,18,18h27c2.8,0,5-2.2,5-5V10c0-5.5-4.5-10-10-10h-35c-2.8,0-5,2.2-5,5V31z"/>
<path class="st1" d="M71.4,44.9c-1.4,0.3-2.7,0.9-3.9,1.7c-3.1,2-5,4.9-4.1,6.4c0.9,1.5,4.2,1.1,7.3-0.9c1.2-0.8,2.3-1.7,3.2-2.9
	c0.4-0.5,0.5-1.2,0.2-1.7l-1.2-2C72.7,45,72,44.8,71.4,44.9z"/>
<path class="st1" d="M63.5,17.9c-1,0.2-1.9,0.6-2.8,1.2c-2.3,1.5-3.6,3.5-3,4.6c0.6,1.1,3,0.8,5.3-0.6c0.9-0.6,1.7-1.3,2.3-2.1
	c0.3-0.4,0.3-0.9,0.1-1.2l-0.8-1.4C64.4,18,64,17.9,63.5,17.9z"/>
<path class="st2" d="M50.7,19.1c-0.2,0-0.5,0-0.7,0.2l-5.3,3.4c-0.4,0.3-0.6,0.8-0.4,1.2c0.1,0.1,0.1,0.2,0.2,0.2l13.2,9.1
	l17.8-11.4L50.7,19.1z"/>
<path class="st3" d="M107.1,17.8L58.5,48.3L29.8,59.8l-14.6,2.9l-1.6-2.7L94.5,10c2.4-1.5,5.1-2.4,7.8-2.7c1.2-0.1,2.3-0.1,3.5,0.1
	c1,0.2,1.9,0.4,2.8,0.9c1,0.5,2.8,0.5,3.4,1.5C111.9,9.8,113.3,14.2,107.1,17.8L107.1,17.8z"/>
<path class="st2" d="M59.2,44.3l-21,33.5c-0.3,0.5-0.1,1,0.3,1.2c0.3,0.1,0.6,0.1,0.9-0.1l5.3-3.4c1-0.7,1.9-1.5,2.7-2.4l40.7-47.9
	L59.2,44.3z"/>
<path class="st2" d="M6.2,43.2c-0.4-0.1-0.8-0.1-1.1,0.2l-4.4,2.8c-0.6,0.4-0.8,1.1-0.5,1.6c0.1,0.1,0.1,0.2,0.2,0.3L12.7,58l13-8.1
	L6.2,43.2z"/>
<path class="st2" d="M16.9,59.8l-6.7,9.3c-0.1,0.1-0.1,0.3,0.1,0.4c0.1,0.1,0.2,0,0.3,0l4.1-2.6c0,0,0.1,0,0.1-0.1l9.7-11.8
	L16.9,59.8z"/>
<path class="st2" d="M104.9,7.9c-1.2-0.2-2.4-0.2-3.6-0.1c-1.2,1.7-1.9,3.5-2.2,5.4c0,0.4,0.3,0.6,0.7,0.6c0.1,0,0.2-0.1,0.4-0.1
	l7.6-4.8C106.9,8.3,105.9,8,104.9,7.9z"/>
<path class="st1" d="M88.3,16.8l5-3.1l4.6,7.9l-5,3.1L88.3,16.8z"/>
<path class="st4" d="M85.2,19.9c-0.6,0.4-0.8,1.1-0.5,1.6l0.5,0.8c0.3,0.5,1.1,0.6,1.7,0.2c0.6-0.4,0.8-1.1,0.5-1.6l-0.5-0.8
	C86.5,19.6,85.8,19.5,85.2,19.9L85.2,19.9z"/>
<path class="st4" d="M80.8,22.7c-0.6,0.4-0.8,1.1-0.5,1.6l0.5,0.8c0.3,0.5,1.1,0.6,1.7,0.2c0.6-0.4,0.8-1.1,0.5-1.6l-0.5-0.8
	C82.1,22.4,81.3,22.3,80.8,22.7L80.8,22.7z"/>
<path class="st4" d="M76.3,25.4c-0.6,0.4-0.8,1.1-0.5,1.6l0.5,0.8c0.3,0.5,1.1,0.6,1.7,0.2c0.6-0.4,0.8-1.1,0.5-1.6l-0.5-0.8
	C77.6,25.2,76.9,25,76.3,25.4L76.3,25.4z"/>
<path class="st4" d="M71.8,28.2c-0.6,0.4-0.8,1.1-0.5,1.6l0.5,0.8c0.3,0.5,1.1,0.6,1.7,0.2c0.6-0.4,0.8-1.1,0.5-1.6l-0.5-0.8
	C73.2,27.9,72.4,27.8,71.8,28.2L71.8,28.2z"/>
<path class="st4" d="M67.4,31c-0.6,0.4-0.8,1.1-0.5,1.6l0.5,0.8c0.3,0.5,1,0.6,1.6,0.3c0.6-0.4,0.8-1.1,0.5-1.6L69,31.2
	C68.7,30.7,68,30.6,67.4,31C67.4,31,67.4,31,67.4,31z"/>
<path class="st4" d="M62.9,33.7c-0.6,0.4-0.8,1.1-0.5,1.6l0.5,0.8c0.3,0.5,1,0.6,1.6,0.3c0.6-0.4,0.8-1.1,0.5-1.6L64.5,34
	C64.2,33.5,63.5,33.4,62.9,33.7C62.9,33.7,62.9,33.7,62.9,33.7z"/>
<path class="st4" d="M58.4,36.5c-0.6,0.4-0.8,1.1-0.5,1.6l0.5,0.8c0.3,0.5,1,0.6,1.6,0.3c0.6-0.4,0.8-1.1,0.5-1.6l-0.5-0.8
	C59.8,36.2,59,36.1,58.4,36.5z"/>
<path class="st4" d="M54,39.3c-0.6,0.4-0.8,1.1-0.5,1.6l0.5,0.8c0.3,0.5,1,0.6,1.6,0.3c0.6-0.4,0.8-1.1,0.5-1.6l-0.5-0.8
	C55.3,39,54.6,38.9,54,39.3z"/>
<path class="st4" d="M49.5,42.1c-0.6,0.4-0.8,1.1-0.5,1.6l0.5,0.8c0.3,0.5,1,0.6,1.6,0.3c0.6-0.4,0.8-1.1,0.5-1.6l-0.5-0.8
	C50.8,41.8,50.1,41.7,49.5,42.1z"/>
<path class="st4" d="M45,44.8c-0.6,0.4-0.8,1.1-0.5,1.6l0,0l0.5,0.8c0.3,0.5,1,0.6,1.6,0.3c0.6-0.4,0.8-1.1,0.5-1.6l-0.5-0.8
	C46.4,44.6,45.6,44.5,45,44.8z"/>
<path class="st4" d="M40.6,47.6C40,48,39.7,48.7,40,49.2l0,0l0.5,0.8c0.3,0.5,1,0.6,1.6,0.3c0.6-0.4,0.8-1.1,0.5-1.6l-0.5-0.8
	C41.9,47.3,41.2,47.2,40.6,47.6z"/>
</svg>
