<svg width="41" height="41" viewBox="0 0 41 41" fill="none" xmlns="http://www.w3.org/2000/svg">
<path fill-rule="evenodd" clip-rule="evenodd" d="M20.5 41C31.8218 41 41 31.8218 41 20.5C41 9.17816 31.8218 0 20.5 0C9.17816 0 0 9.17816 0 20.5C0 31.8218 9.17816 41 20.5 41Z" fill="white"/>
<path fill-rule="evenodd" clip-rule="evenodd" d="M23.1084 18.2445C22.7883 18.1432 22.4202 18.0757 22.0842 18.0757C21.6681 18.0757 20.7719 18.3626 20.7719 18.9195V20.2527H22.9003V22.4971H20.7719V28.6905H18.6275V22.4971H17.5713V20.2527H18.6275V19.122C18.6275 17.4176 19.3636 16 21.14 16C21.7481 16 22.8363 16.0338 23.4284 16.2531L23.1084 18.2445Z" fill="#080809"/>
</svg>
