<svg width="107" height="35" viewBox="0 0 107 35" fill="none" xmlns="http://www.w3.org/2000/svg">
<rect width="107" height="35" rx="17.5" fill="#080809"/>
<g clip-path="url(#clip0_108:77)">
<path d="M28.5075 17.0018L18.4639 26.673C17.9936 26.3516 17.7144 25.817 17.7193 25.2473V8.75626C17.7144 8.18663 17.9936 7.65199 18.4639 7.33057L28.5075 17.0018Z" fill="#2196F3"/>
<path d="M32.0217 13.6236L28.5074 17.0018L18.4639 7.33053C18.5017 7.3012 18.5411 7.27392 18.5819 7.2488C19.1127 6.92708 19.7757 6.9167 20.3164 7.22156L32.0217 13.6236Z" fill="#4CAF50"/>
<path d="M36.2806 17.0017C36.2872 17.6447 35.9377 18.2387 35.3725 18.5454L32.0217 20.3798L28.5073 17.0017L32.0217 13.6235L35.3725 15.4579C35.9377 15.7646 36.2872 16.3586 36.2806 17.0017Z" fill="#F0BB1F"/>
<path d="M32.0217 20.3801L20.3164 26.7822C19.7745 27.0823 19.114 27.0719 18.5819 26.7549C18.5411 26.7298 18.5017 26.7025 18.4639 26.6732L28.5074 17.002L32.0217 20.3801Z" fill="#F15A2B"/>
</g>
<path d="M48.024 11.8801H45.216V13.0001H46.712C46.512 13.5361 46.024 13.8641 45.28 13.8641C44.192 13.8641 43.52 13.1681 43.52 12.2161C43.52 11.2321 44.224 10.5361 45.168 10.5361C45.8 10.5361 46.304 10.8241 46.536 11.1921L47.624 10.5681C47.152 9.81609 46.248 9.28809 45.176 9.28809C43.528 9.28809 42.24 10.5841 42.24 12.2081C42.24 13.8161 43.504 15.1121 45.264 15.1121C46.832 15.1121 48.024 14.0721 48.024 12.3601V11.8801Z" fill="white"/>
<path d="M49.6256 13.7681V12.7761H51.6256V11.5601H49.6256V10.6321H51.8256V9.40009H48.3456V15.0001H51.8656V13.7681H49.6256Z" fill="white"/>
<path d="M55.9478 9.40009H51.7878V10.6321H53.2278V15.0001H54.5078V10.6321H55.9478V9.40009Z" fill="white"/>
<path d="M57.7081 9.40009V15.0001H58.9881V9.40009H57.7081Z" fill="white"/>
<path d="M63.3103 9.40009H59.1503V10.6321H60.5903V15.0001H61.8703V10.6321H63.3103V9.40009Z" fill="white"/>
<path d="M67.7426 15.1121C69.3506 15.1121 70.6546 13.8481 70.6546 12.2001C70.6546 10.5521 69.3506 9.28809 67.7426 9.28809C66.1346 9.28809 64.8306 10.5521 64.8306 12.2001C64.8306 13.8481 66.1346 15.1121 67.7426 15.1121ZM67.7426 13.8641C66.8306 13.8641 66.1106 13.2001 66.1106 12.2001C66.1106 11.2001 66.8306 10.5361 67.7426 10.5361C68.6546 10.5361 69.3746 11.2001 69.3746 12.2001C69.3746 13.2001 68.6546 13.8641 67.7426 13.8641Z" fill="white"/>
<path d="M74.0953 9.40009V12.4401L71.9353 9.40009H70.9753V15.0001H72.2553V11.9601L74.4153 15.0001H75.3753V9.40009H74.0953Z" fill="white"/>
<path d="M48.024 21.3921V21.6081C48.024 22.3068 47.776 22.8961 47.28 23.3761C46.784 23.8508 46.1307 24.0881 45.32 24.0881C44.4667 24.0881 43.7627 23.8108 43.208 23.2561C42.6533 22.6961 42.376 22.0108 42.376 21.2001C42.376 20.3894 42.6507 19.7068 43.2 19.1521C43.7493 18.5921 44.4453 18.3121 45.288 18.3121C45.8 18.3121 46.2693 18.4348 46.696 18.6801C47.128 18.9254 47.4613 19.2534 47.696 19.6641L47.32 19.8881C47.1333 19.5361 46.856 19.2534 46.488 19.0401C46.1253 18.8268 45.7253 18.7201 45.288 18.7201C44.5627 18.7201 43.9653 18.9601 43.496 19.4401C43.032 19.9148 42.8 20.5014 42.8 21.2001C42.8 21.8988 43.0347 22.4881 43.504 22.9681C43.9733 23.4428 44.5787 23.6801 45.32 23.6801C45.976 23.6801 46.5067 23.5014 46.912 23.1441C47.3173 22.7868 47.544 22.3361 47.592 21.7921H45.216V21.3921H48.024Z" fill="white"/>
<path d="M53.7026 23.2481C53.1426 23.8081 52.4599 24.0881 51.6546 24.0881C50.8493 24.0881 50.1666 23.8081 49.6066 23.2481C49.0466 22.6828 48.7666 22.0001 48.7666 21.2001C48.7666 20.4001 49.0466 19.7201 49.6066 19.1601C50.1666 18.5948 50.8493 18.3121 51.6546 18.3121C52.4599 18.3121 53.1426 18.5948 53.7026 19.1601C54.2626 19.7201 54.5426 20.4001 54.5426 21.2001C54.5426 22.0001 54.2626 22.6828 53.7026 23.2481ZM49.9026 22.9601C50.3826 23.4401 50.9666 23.6801 51.6546 23.6801C52.3426 23.6801 52.9239 23.4401 53.3986 22.9601C53.8786 22.4748 54.1186 21.8881 54.1186 21.2001C54.1186 20.5121 53.8786 19.9281 53.3986 19.4481C52.9239 18.9628 52.3426 18.7201 51.6546 18.7201C50.9666 18.7201 50.3826 18.9628 49.9026 19.4481C49.4279 19.9281 49.1906 20.5121 49.1906 21.2001C49.1906 21.8881 49.4279 22.4748 49.9026 22.9601Z" fill="white"/>
<path d="M60.2339 23.2481C59.6739 23.8081 58.9912 24.0881 58.1859 24.0881C57.3805 24.0881 56.6979 23.8081 56.1379 23.2481C55.5779 22.6828 55.2979 22.0001 55.2979 21.2001C55.2979 20.4001 55.5779 19.7201 56.1379 19.1601C56.6979 18.5948 57.3805 18.3121 58.1859 18.3121C58.9912 18.3121 59.6739 18.5948 60.2339 19.1601C60.7939 19.7201 61.0739 20.4001 61.0739 21.2001C61.0739 22.0001 60.7939 22.6828 60.2339 23.2481ZM56.4339 22.9601C56.9139 23.4401 57.4979 23.6801 58.1859 23.6801C58.8739 23.6801 59.4552 23.4401 59.9299 22.9601C60.4099 22.4748 60.6499 21.8881 60.6499 21.2001C60.6499 20.5121 60.4099 19.9281 59.9299 19.4481C59.4552 18.9628 58.8739 18.7201 58.1859 18.7201C57.4979 18.7201 56.9139 18.9628 56.4339 19.4481C55.9592 19.9281 55.7219 20.5121 55.7219 21.2001C55.7219 21.8881 55.9592 22.4748 56.4339 22.9601Z" fill="white"/>
<path d="M67.4771 21.3921V21.6081C67.4771 22.3068 67.2291 22.8961 66.7331 23.3761C66.2371 23.8508 65.5838 24.0881 64.7731 24.0881C63.9198 24.0881 63.2158 23.8108 62.6611 23.2561C62.1064 22.6961 61.8291 22.0108 61.8291 21.2001C61.8291 20.3894 62.1038 19.7068 62.6531 19.1521C63.2024 18.5921 63.8984 18.3121 64.7411 18.3121C65.2531 18.3121 65.7224 18.4348 66.1491 18.6801C66.5811 18.9254 66.9144 19.2534 67.1491 19.6641L66.7731 19.8881C66.5864 19.5361 66.3091 19.2534 65.9411 19.0401C65.5784 18.8268 65.1784 18.7201 64.7411 18.7201C64.0158 18.7201 63.4184 18.9601 62.9491 19.4401C62.4851 19.9148 62.2531 20.5014 62.2531 21.2001C62.2531 21.8988 62.4878 22.4881 62.9571 22.9681C63.4264 23.4428 64.0318 23.6801 64.7731 23.6801C65.4291 23.6801 65.9598 23.5014 66.3651 23.1441C66.7705 22.7868 66.9971 22.3361 67.0451 21.7921H64.6691V21.3921H67.4771Z" fill="white"/>
<path d="M68.9637 23.6001H71.6037V24.0001H68.5397V18.4001H68.9637V23.6001Z" fill="white"/>
<path d="M72.9091 23.6001H75.7091V24.0001H72.4851V18.4001H75.6691V18.8001H72.9091V20.9761H75.4691V21.3761H72.9091V23.6001Z" fill="white"/>
<path d="M80.7875 18.4001C81.2888 18.4001 81.7048 18.5654 82.0355 18.8961C82.3662 19.2268 82.5315 19.6401 82.5315 20.1361C82.5315 20.6321 82.3662 21.0454 82.0355 21.3761C81.7048 21.7014 81.2888 21.8641 80.7875 21.8641H79.3075V24.0001H78.8835V18.4001H80.7875ZM80.7875 21.4641C81.1715 21.4641 81.4862 21.3388 81.7315 21.0881C81.9822 20.8374 82.1075 20.5201 82.1075 20.1361C82.1075 19.7468 81.9822 19.4268 81.7315 19.1761C81.4862 18.9254 81.1715 18.8001 80.7875 18.8001H79.3075V21.4641H80.7875Z" fill="white"/>
<path d="M84.0028 23.6001H86.6428V24.0001H83.5788V18.4001H84.0028V23.6001Z" fill="white"/>
<path d="M91.4484 24.0001L90.9044 22.5761H88.0964L87.5524 24.0001H87.1044L89.2804 18.4001H89.7284L91.8964 24.0001H91.4484ZM88.2564 22.1761H90.7524L89.5044 18.9201L88.2564 22.1761Z" fill="white"/>
<path d="M95.8809 18.4001L93.8409 21.6961V24.0001H93.4169V21.6961L91.3769 18.4001H91.8569L93.6329 21.2881L95.4009 18.4001H95.8809Z" fill="white"/>
<defs>
<clipPath id="clip0_108:77">
<rect width="20" height="20" fill="white" transform="translate(17 7)"/>
</clipPath>
</defs>
</svg>
