<svg width="41" height="41" viewBox="0 0 41 41" fill="none" xmlns="http://www.w3.org/2000/svg">
<path fill-rule="evenodd" clip-rule="evenodd" d="M20.5 41C31.8218 41 41 31.8218 41 20.5C41 9.17816 31.8218 0 20.5 0C9.17816 0 0 9.17816 0 20.5C0 31.8218 9.17816 41 20.5 41Z" fill="white"/>
<path d="M28 15.539C27.405 15.8 26.771 15.973 26.11 16.057C26.79 15.651 27.309 15.013 27.553 14.244C26.919 14.622 26.219 14.889 25.473 15.038C24.871 14.397 24.013 14 23.077 14C21.261 14 19.799 15.474 19.799 17.281C19.799 17.541 19.821 17.791 19.875 18.029C17.148 17.896 14.735 16.589 13.114 14.598C12.831 15.089 12.665 15.651 12.665 16.256C12.665 17.392 13.25 18.399 14.122 18.982C13.595 18.972 13.078 18.819 12.64 18.578C12.64 18.588 12.64 18.601 12.64 18.614C12.64 20.208 13.777 21.532 15.268 21.837C15.001 21.91 14.71 21.945 14.408 21.945C14.198 21.945 13.986 21.933 13.787 21.889C14.212 23.188 15.418 24.143 16.852 24.174C15.736 25.047 14.319 25.573 12.785 25.573C12.516 25.573 12.258 25.561 12 25.528C13.453 26.465 15.175 27 17.032 27C23.068 27 26.368 22 26.368 17.666C26.368 17.521 26.363 17.381 26.356 17.242C27.007 16.78 27.554 16.203 28 15.539Z" fill="#080809"/>
</svg>
