<svg width="16" height="10" viewBox="0 0 16 10" fill="none" xmlns="http://www.w3.org/2000/svg">
<path d="M0.292893 1.70711C-0.0976311 1.31658 -0.0976311 0.683417 0.292893 0.292893C0.683417 -0.0976315 1.31658 -0.0976315 1.70711 0.292893L0.292893 1.70711ZM8 8L8.70711 8.70711L8 9.41421L7.29289 8.70711L8 8ZM14.2929 0.292893C14.6834 -0.0976315 15.3166 -0.0976315 15.7071 0.292893C16.0976 0.683417 16.0976 1.31658 15.7071 1.70711L14.2929 0.292893ZM1.70711 0.292893L8.70711 7.29289L7.29289 8.70711L0.292893 1.70711L1.70711 0.292893ZM7.29289 7.29289L14.2929 0.292893L15.7071 1.70711L8.70711 8.70711L7.29289 7.29289Z" fill="#3E2E4D"/>
</svg>
